<svg width="50" height="50" viewBox="0 0 50 50" fill="none" xmlns="http://www.w3.org/2000/svg">
<path d="M48.8427 25.0885L48.8427 25.0885C49.6813 32.021 47.101 37.6919 42.6202 41.7861C38.1158 45.9018 31.6709 48.4331 24.8484 48.9396C11.5443 49.9273 1.51263 38.5654 1.00879 24.9315C0.837868 20.3063 3.16704 14.3037 7.43637 9.43742C11.6868 4.59267 17.7499 1 24.9225 1C31.2044 1 36.6521 2.88423 40.7805 6.77476C44.9145 10.6706 47.8249 16.6723 48.8427 25.0885Z" stroke="black" stroke-width="2"/>
<path d="M34.3195 28.2664L31.6653 19.419C31.6122 19.2407 31.5198 19.0765 31.3949 18.9385C31.27 18.8006 31.1159 18.6923 30.9437 18.6217L30.9017 18.6345L30.9446 18.6195C30.0734 18.2643 29.1698 17.9946 28.2465 17.8142C28.166 17.7982 28.0832 17.7982 28.0027 17.8143C27.9222 17.8303 27.8456 17.862 27.7774 17.9076C27.7091 17.9532 27.6505 18.0118 27.6049 18.0801C27.5593 18.1483 27.5276 18.2249 27.5116 18.3054C27.4956 18.3859 27.4956 18.4688 27.5117 18.5493C27.5277 18.6298 27.5594 18.7063 27.605 18.7746C27.6506 18.8428 27.7092 18.9014 27.7775 18.947C27.8457 18.9926 27.9223 19.0243 28.0028 19.0403C28.3531 19.1099 28.6965 19.1919 29.0328 19.2862C29.1645 19.3512 29.2691 19.4607 29.3279 19.5953C29.3868 19.7299 29.3962 19.881 29.3545 20.0219C29.3129 20.1627 29.2228 20.2844 29.1001 20.3653C28.9775 20.4462 28.8303 20.4812 28.6843 20.4641C26.2951 19.8503 23.79 19.8453 21.3983 20.4497C21.2497 20.4863 21.0929 20.467 20.9576 20.3955C20.8222 20.3241 20.7179 20.2055 20.6642 20.0621C20.6106 19.9188 20.6114 19.7608 20.6666 19.618C20.7218 19.4753 20.8274 19.3578 20.9635 19.2878L20.9662 19.2887C21.3023 19.1946 21.6461 19.1125 21.9975 19.0425C22.16 19.0101 22.3031 18.9145 22.3952 18.7767C22.4873 18.6389 22.5209 18.4701 22.4885 18.3076C22.4562 18.145 22.3606 18.0019 22.2228 17.9098C22.085 17.8177 21.9163 17.7841 21.7537 17.8164C20.8304 17.9968 19.9268 18.2665 19.0556 18.6217C18.8834 18.6923 18.7293 18.8005 18.6044 18.9385C18.4795 19.0764 18.3871 19.2406 18.3339 19.4189L15.6797 28.2664C15.6111 28.4978 15.6107 28.7442 15.6784 28.9759C15.7461 29.2076 15.8791 29.415 16.0615 29.5731C16.136 29.638 16.2125 29.7016 16.29 29.7647C16.2918 29.7661 16.2934 29.7679 16.2952 29.7694C17.5632 30.7979 19.2252 31.5838 21.1014 32.0418C21.2624 32.0811 21.4324 32.0548 21.5741 31.9688C21.7158 31.8827 21.8174 31.7439 21.8568 31.5829C21.8961 31.4218 21.8698 31.2518 21.7838 31.1101C21.6977 30.9685 21.5589 30.8668 21.3978 30.8275C20.5541 30.6247 19.7336 30.3349 18.9496 29.9629L18.9547 29.9633C18.8448 29.8636 18.7739 29.7281 18.7548 29.5809C18.7357 29.4337 18.7696 29.2846 18.8504 29.1601C18.9312 29.0357 19.0537 28.944 19.1959 28.9016C19.3381 28.8593 19.4908 28.8689 19.6265 28.9287C21.1098 29.5894 22.9733 30.0001 24.9996 30.0001C27.0259 30.0001 28.8908 29.5889 30.374 28.9282C30.5098 28.8687 30.6623 28.8594 30.8043 28.902C30.9464 28.9446 31.0686 29.0363 31.1492 29.1607C31.2298 29.2852 31.2636 29.4342 31.2444 29.5813C31.2252 29.7283 31.1543 29.8637 31.0445 29.9633L31.0496 29.9629C30.2656 30.3349 29.4451 30.6247 28.6014 30.8275C28.4403 30.8668 28.3015 30.9685 28.2155 31.1101C28.1294 31.2518 28.1031 31.4218 28.1425 31.5829C28.1818 31.7439 28.2835 31.8827 28.4251 31.9688C28.5668 32.0548 28.7368 32.0811 28.8979 32.0418C30.774 31.5838 32.436 30.7979 33.704 29.7694C33.7059 29.7678 33.7075 29.7661 33.7094 29.7645H33.7094C33.7868 29.7015 33.8633 29.6379 33.9378 29.573C34.1202 29.4149 34.2532 29.2076 34.3209 28.9758C34.3885 28.7441 34.3881 28.4978 34.3195 28.2664ZM22.4996 27.1876C22.3142 27.1876 22.1329 27.1326 21.9788 27.0296C21.8246 26.9266 21.7044 26.7801 21.6335 26.6088C21.5625 26.4375 21.544 26.249 21.5801 26.0672C21.6163 25.8853 21.7056 25.7183 21.8367 25.5872C21.9678 25.456 22.1349 25.3668 22.3167 25.3306C22.4986 25.2944 22.6871 25.313 22.8584 25.3839C23.0297 25.4549 23.1761 25.575 23.2791 25.7292C23.3821 25.8834 23.4371 26.0646 23.4371 26.2501C23.4371 26.4987 23.3383 26.7372 23.1625 26.913C22.9867 27.0888 22.7483 27.1876 22.4996 27.1876ZM27.4996 27.1876C27.3142 27.1876 27.1329 27.1326 26.9788 27.0296C26.8246 26.9266 26.7044 26.7801 26.6335 26.6088C26.5625 26.4375 26.544 26.249 26.5801 26.0672C26.6163 25.8853 26.7056 25.7183 26.8367 25.5872C26.9678 25.456 27.1349 25.3668 27.3167 25.3306C27.4986 25.2944 27.6871 25.313 27.8584 25.3839C28.0297 25.4549 28.1761 25.575 28.2791 25.7292C28.3821 25.8834 28.4371 26.0646 28.4371 26.2501C28.4371 26.4987 28.3383 26.7372 28.1625 26.913C27.9867 27.0888 27.7483 27.1876 27.4996 27.1876Z" fill="black"/>
</svg>
