<svg
                            width="20"
                            height="16"
                            viewBox="0 0 20 16"
                            fill="none"
                            className=" -mt-3 inline-block"
                            xmlns="http://www.w3.org/2000/svg"
                        >
                            <path
                                d="M19.3195 11.2664L16.6653 2.41901C16.6122 2.24067 16.5198 2.0765 16.3949 1.93854C16.27 1.80057 16.1159 1.69233 15.9437 1.62174L15.9017 1.63448L15.9446 1.61949C15.0734 1.2643 14.1698 0.994614 13.2465 0.814245C13.166 0.798239 13.0832 0.798247 13.0027 0.814267C12.9222 0.830287 12.8456 0.862006 12.7774 0.907613C12.7091 0.953219 12.6505 1.01182 12.6049 1.08007C12.5593 1.14832 12.5276 1.22488 12.5116 1.30539C12.4956 1.38589 12.4956 1.46876 12.5117 1.54926C12.5277 1.62976 12.5594 1.70631 12.605 1.77456C12.6506 1.8428 12.7092 1.90139 12.7775 1.94698C12.8457 1.99258 12.9223 2.02428 13.0028 2.04029C13.3531 2.10994 13.6965 2.19191 14.0328 2.28618C14.1645 2.35123 14.2691 2.46071 14.3279 2.59531C14.3868 2.72991 14.3962 2.88098 14.3545 3.02186C14.3129 3.16273 14.2228 3.28436 14.1001 3.36527C13.9775 3.44618 13.8303 3.48118 13.6843 3.46408C11.2951 2.85028 8.79002 2.84535 6.39835 3.44974C6.24974 3.48628 6.0929 3.467 5.95757 3.39555C5.82225 3.3241 5.71786 3.20545 5.66423 3.06213C5.61059 2.91881 5.61144 2.76078 5.66661 2.61804C5.72178 2.4753 5.82743 2.35778 5.96351 2.28779L5.96618 2.2887C6.30233 2.19455 6.6461 2.11247 6.99748 2.04246C7.16005 2.01012 7.3031 1.91452 7.39519 1.77671C7.48728 1.6389 7.52085 1.47015 7.48853 1.30758C7.45621 1.14501 7.36064 1.00194 7.22284 0.909831C7.08504 0.817723 6.9163 0.784122 6.75372 0.816419C5.8304 0.996806 4.92679 1.26649 4.05563 1.62166C3.88345 1.69226 3.72926 1.80051 3.60437 1.93847C3.47948 2.07643 3.38706 2.2406 3.33389 2.41893L0.679695 11.2664C0.611128 11.4978 0.610668 11.7442 0.67837 11.9759C0.746071 12.2076 0.87907 12.415 1.06147 12.5731C1.13605 12.638 1.21249 12.7016 1.29001 12.7647C1.29184 12.7661 1.2934 12.7679 1.29523 12.7694C2.56324 13.7979 4.22519 14.5838 6.10137 15.0418C6.2624 15.0811 6.43245 15.0548 6.57411 14.9688C6.71577 14.8827 6.81744 14.7439 6.85676 14.5829C6.89607 14.4218 6.86981 14.2518 6.78375 14.1101C6.69769 13.9685 6.55888 13.8668 6.39785 13.8275C5.55408 13.6247 4.7336 13.3349 3.94958 12.9629L3.95473 12.9633C3.84479 12.8636 3.77392 12.7281 3.7548 12.5809C3.73568 12.4337 3.76956 12.2846 3.85038 12.1601C3.9312 12.0357 4.05368 11.944 4.19589 11.9016C4.3381 11.8593 4.49076 11.8689 4.62653 11.9287C6.10977 12.5894 7.97328 13.0001 9.99961 13.0001C12.0259 13.0001 13.8908 12.5889 15.374 11.9282C15.5098 11.8687 15.6623 11.8594 15.8043 11.902C15.9464 11.9446 16.0686 12.0363 16.1492 12.1607C16.2298 12.2852 16.2636 12.4342 16.2444 12.5813C16.2252 12.7283 16.1543 12.8637 16.0445 12.9633L16.0496 12.9629C15.2656 13.3349 14.4451 13.6247 13.6014 13.8275C13.4403 13.8668 13.3015 13.9685 13.2155 14.1101C13.1294 14.2518 13.1031 14.4218 13.1425 14.5829C13.1818 14.7439 13.2835 14.8827 13.4251 14.9688C13.5668 15.0548 13.7368 15.0811 13.8979 15.0418C15.774 14.5838 17.436 13.7979 18.704 12.7694C18.7059 12.7678 18.7075 12.7661 18.7094 12.7645H18.7094C18.7868 12.7015 18.8633 12.6379 18.9378 12.573C19.1202 12.4149 19.2532 12.2076 19.3209 11.9758C19.3885 11.7441 19.3881 11.4978 19.3195 11.2664ZM7.49961 10.1876C7.31419 10.1876 7.13293 10.1326 6.97876 10.0296C6.82459 9.92655 6.70443 9.78013 6.63347 9.60883C6.56252 9.43752 6.54395 9.24902 6.58012 9.06717C6.6163 8.88531 6.70559 8.71826 6.8367 8.58715C6.96781 8.45604 7.13486 8.36675 7.31671 8.33058C7.49857 8.2944 7.68707 8.31297 7.85838 8.38393C8.02968 8.45488 8.1761 8.57505 8.27911 8.72922C8.38213 8.88339 8.43711 9.06464 8.43711 9.25006C8.43711 9.4987 8.33834 9.73716 8.16252 9.91298C7.98671 10.0888 7.74825 10.1876 7.49961 10.1876ZM12.4996 10.1876C12.3142 10.1876 12.1329 10.1326 11.9788 10.0296C11.8246 9.92655 11.7044 9.78013 11.6335 9.60883C11.5625 9.43752 11.544 9.24902 11.5801 9.06717C11.6163 8.88531 11.7056 8.71826 11.8367 8.58715C11.9678 8.45604 12.1349 8.36675 12.3167 8.33058C12.4986 8.2944 12.6871 8.31297 12.8584 8.38393C13.0297 8.45488 13.1761 8.57505 13.2791 8.72922C13.3821 8.88339 13.4371 9.06464 13.4371 9.25006C13.4371 9.4987 13.3383 9.73716 13.1625 9.91298C12.9867 10.0888 12.7483 10.1876 12.4996 10.1876Z"
                                fill="#FFE14B"
                            />
                        </svg>