<svg width="161" height="101" viewBox="0 0 161 101" fill="none" xmlns="http://www.w3.org/2000/svg">
<path d="M41.4537 41.7799C36.8574 58.8595 30.7289 86.2865 27.5892 99.2377H18.1626C18.389 94.181 18.623 85.6752 19.2343 76.8675C19.8456 67.0635 20.6155 57.4859 21.1514 51.0481H20.8419C19.9211 56.5651 18.5475 63.9917 16.555 73.3429C14.638 82.5355 12.1851 94.4829 10.9625 99.2377H1C1.8453 87.4413 3.60383 55.1161 4.06421 41.7799H11.1134C10.653 45.531 10.1172 55.5689 9.35489 69.9692C8.96998 76.709 8.5096 84.9054 8.13223 91.1093H8.44165C9.4379 85.2903 10.8945 77.1693 12.2757 71.2673C15.189 58.8595 16.7211 49.7424 18.6305 41.7724H26.2156C25.8307 49.7424 25.6797 54.7915 25.1439 67.7427C24.8344 73.5617 24.2986 84.0601 23.9212 91.1093H24.2306C25.5288 84.3695 26.6081 77.3958 28.0571 70.7315C29.9742 62.1502 30.895 56.3312 34.2611 41.7724H41.4537V41.7799Z" fill="black"/>
<path d="M41.4537 41.7799C36.8574 58.8595 30.7289 86.2865 27.5892 99.2377H18.1626C18.389 94.181 18.623 85.6752 19.2343 76.8675C19.8456 67.0635 20.6155 57.4859 21.1514 51.0481H20.8419C19.9211 56.5651 18.5475 63.9917 16.555 73.3429C14.638 82.5355 12.1851 94.4829 10.9625 99.2377H1C1.8453 87.4413 3.60383 55.1161 4.06421 41.7799H11.1134C10.653 45.531 10.1172 55.5689 9.35489 69.9692C8.96998 76.709 8.5096 84.9054 8.13223 91.1093H8.44165C9.4379 85.2903 10.8945 77.1694 12.2757 71.2673C15.189 58.8595 16.7211 49.7424 18.6305 41.7724H26.2156C25.8307 49.7424 25.6797 54.7915 25.1439 67.7427C24.8344 73.5617 24.2986 84.0601 23.9212 91.1093H24.2306C25.5288 84.3695 26.6081 77.3958 28.0571 70.7315C29.9742 62.1502 30.895 56.3312 34.2611 41.7724H41.4537V41.7799Z" stroke="black" stroke-width="0.4213" stroke-miterlimit="10"/>
<path d="M51.1812 99.2303H36.2451C38.464 85.6677 42.298 60.5427 45.0528 41.7725H59.6116L58.5399 48.7462C54.9398 48.5952 53.0228 48.5952 51.4152 48.5198C50.9548 51.6595 50.419 54.9576 49.8831 58.3237C52.4869 58.3237 55.4756 58.2483 56.4719 58.1728L55.4757 65.3729C54.404 65.2975 51.4152 65.222 48.7359 65.222C47.2793 74.1882 45.8227 83.6828 44.5245 92.415C46.7434 92.415 49.3473 92.3395 52.2605 92.1056L51.1812 99.2303Z" fill="black"/>
<path d="M71.1745 41.78C69.2575 53.8859 64.5856 83.8337 62.3667 99.2378H55.0156C57.0836 86.2941 61.9893 54.6557 63.8233 41.78H71.1745Z" fill="black"/>
<path d="M51.1812 99.2303H36.2451C38.464 85.6677 42.298 60.5427 45.0528 41.7725H59.6116L58.5399 48.7462C54.9398 48.5952 53.0228 48.5952 51.4152 48.5198C50.9548 51.6595 50.419 54.9576 49.8831 58.3237C52.4869 58.3237 55.4756 58.2483 56.4719 58.1728L55.4757 65.3729C54.404 65.2975 51.4152 65.222 48.7359 65.222C47.2793 74.1882 45.8227 83.6828 44.5245 92.415C46.7434 92.415 49.3473 92.3395 52.2605 92.1056L51.1812 99.2303Z" stroke="black" stroke-width="0.4213" stroke-miterlimit="10"/>
<path d="M71.1745 41.78C69.2575 53.8859 64.5856 83.8337 62.3667 99.2378H55.0156C57.0836 86.2941 61.9893 54.6557 63.8233 41.78H71.1745Z" stroke="black" stroke-width="0.4213" stroke-miterlimit="10"/>
<path d="M79.5215 67.5163H79.3706C77.4536 80.2336 75.5366 92.4904 74.5479 99.2302H67.1968C69.4157 86.5884 72.9402 62.769 76.0044 41.546C83.8159 41.8554 92.7067 44.6102 92.7067 53.4934C92.7067 59.3954 90.0274 62.92 86.5783 65.0634C87.1896 75.4787 87.801 91.4942 88.4953 99.2302L80.9102 99.6906C80.8196 92.4904 80.3593 79.3883 79.5215 67.5163ZM82.1253 49.9009C81.5895 53.4255 80.9781 57.1765 80.4423 60.935C83.1971 60.0143 85.499 57.7954 85.499 53.8858C85.4915 51.7349 84.2688 50.5122 82.1253 49.9009Z" fill="black"/>
<path d="M100.277 41.546C108.322 41.9309 115.907 45.9913 115.907 60.9275C115.907 79.6977 106.714 99.0792 91.4688 99.5396C94.533 80.4675 97.8991 58.8595 100.277 41.546ZM106.329 50.2027C104.571 61.5388 102.269 75.8637 100.201 89.1922C104.948 83.8336 108.933 73.0259 108.933 61.7653C108.933 55.6444 107.862 52.1198 106.329 50.2027Z" fill="black"/>
<path d="M79.5215 67.5163H79.3706C77.4536 80.2336 75.5366 92.4904 74.5479 99.2302H67.1968C69.4157 86.5884 72.9402 62.769 76.0044 41.546C83.8159 41.8554 92.7067 44.6102 92.7067 53.4934C92.7067 59.3954 90.0274 62.92 86.5783 65.0634C87.1896 75.4787 87.801 91.4942 88.4953 99.2302L80.9102 99.6906C80.8196 92.4904 80.3593 79.3883 79.5215 67.5163ZM82.1253 49.9009C81.5895 53.4255 80.9781 57.1765 80.4423 60.935C83.1971 60.0143 85.499 57.7954 85.499 53.8858C85.4915 51.7349 84.2688 50.5122 82.1253 49.9009Z" stroke="black" stroke-width="0.4213" stroke-miterlimit="10"/>
<path d="M100.277 41.546C108.322 41.9309 115.907 45.9913 115.907 60.9275C115.907 79.6977 106.714 99.0792 91.4688 99.5396C94.533 80.4675 97.8991 58.8595 100.277 41.546ZM106.329 50.2027C104.571 61.5388 102.269 75.8637 100.201 89.1922C104.948 83.8336 108.933 73.0259 108.933 61.7653C108.933 55.6444 107.862 52.1198 106.329 50.2027Z" stroke="black" stroke-width="0.4213" stroke-miterlimit="10"/>
<path d="M141.267 54.9576C141.267 75.4108 135.214 100 125.719 100C120.278 100 118.134 94.7924 118.134 85.9016C118.134 65.7503 124.187 41.2365 133.84 41.2365C139.199 41.2441 141.267 46.4517 141.267 54.9576ZM133.991 53.3425C133.991 48.9726 133.84 47.9839 133.146 47.9839C131.078 47.9839 125.41 70.739 125.41 88.2036C125.41 92.5735 125.561 93.5697 126.255 93.5697C128.323 93.5622 133.991 70.7315 133.991 53.3425Z" fill="black"/>
<path d="M141.267 54.9576C141.267 75.4108 135.214 100 125.719 100C120.278 100 118.134 94.7924 118.134 85.9016C118.134 65.7503 124.187 41.2365 133.84 41.2365C139.199 41.2441 141.267 46.4517 141.267 54.9576ZM133.991 53.3425C133.991 48.9726 133.84 47.9839 133.146 47.9839C131.078 47.9839 125.41 70.739 125.41 88.2036C125.41 92.5735 125.561 93.5697 126.255 93.5697C128.323 93.5622 133.991 70.7315 133.991 53.3425Z" stroke="black" stroke-width="0.4213" stroke-miterlimit="10"/>
<path d="M143.946 99.8491C141.493 99.8491 139.274 99.2378 137.591 98.2415L140.429 91.6527C141.349 92.5735 142.497 92.9584 143.417 92.9584C145.1 92.9584 146.406 91.5018 146.406 87.6753C146.406 79.8638 144.723 59.7124 144.723 50.8292C144.723 44.3914 148.934 41.0253 153.689 41.0253C156.444 41.0253 158.512 41.7121 159.969 42.9423L156.293 48.7613C155.531 48.0745 154.912 47.6896 153.999 47.6896C152.391 47.6896 151.621 48.9122 151.621 50.8292C151.621 58.7992 153.538 79.2525 153.538 87.9093C153.523 95.8641 149.304 99.8491 143.946 99.8491Z" fill="black"/>
<path d="M143.946 99.8491C141.493 99.8491 139.274 99.2378 137.591 98.2415L140.429 91.6527C141.349 92.5735 142.497 92.9584 143.417 92.9584C145.1 92.9584 146.406 91.5018 146.406 87.6753C146.406 79.8638 144.723 59.7124 144.723 50.8292C144.723 44.3914 148.934 41.0253 153.689 41.0253C156.444 41.0253 158.512 41.7121 159.969 42.9423L156.293 48.7613C155.531 48.0745 154.912 47.6896 153.999 47.6896C152.391 47.6896 151.621 48.9122 151.621 50.8292C151.621 58.7992 153.538 79.2525 153.538 87.9093C153.523 95.8641 149.304 99.8491 143.946 99.8491Z" stroke="black" stroke-width="0.4213" stroke-miterlimit="10"/>
<path d="M72.2474 8.04341C71.1078 15.1832 69.3191 27.1381 68.6398 31.5609H65.2134C65.9606 27.1381 67.8549 15.1756 68.8889 8.04341C68.104 8.04341 67.2134 8.04341 66.8889 8.08115L67.387 4.79807H74.5268L73.9909 8.08115C73.7494 8.04341 72.9946 8.04341 72.2474 8.04341Z" fill="black"/>
<path d="M72.2474 8.04341C71.1078 15.1832 69.3191 27.1381 68.6398 31.5609H65.2134C65.9606 27.1381 67.8549 15.1756 68.8889 8.04341C68.104 8.04341 67.2134 8.04341 66.8889 8.08115L67.387 4.79807H74.5268L73.9909 8.08115C73.7494 8.04341 72.9946 8.04341 72.2474 8.04341Z" stroke="black" stroke-width="0.4213" stroke-miterlimit="10"/>
<path d="M79.9509 4.76031C79.6264 6.54148 79.2038 9.32645 78.6981 12.5039C79.2717 12.5039 79.8755 12.5039 80.4114 12.4661C80.8718 9.39437 81.2642 6.64715 81.5208 4.7905H85.0153C84.1624 10.217 81.9133 24.6324 80.9095 31.5533H77.415C77.9509 28.1948 78.9849 21.7041 79.9133 15.7417C79.3397 15.7039 78.7736 15.7039 78.2 15.7417C77.3094 21.4173 76.3434 27.6966 75.7698 31.5533H72.3433C73.2716 25.7041 75.6264 10.6019 76.4491 4.75277H79.9509V4.76031Z" fill="black"/>
<path d="M79.9509 4.76031C79.6264 6.54148 79.2038 9.32645 78.6981 12.5039C79.2717 12.5039 79.8755 12.5039 80.4114 12.4661C80.8718 9.39437 81.2642 6.64715 81.5208 4.7905H85.0153C84.1624 10.217 81.9133 24.6324 80.9095 31.5533H77.415C77.9509 28.1948 78.9849 21.7041 79.9133 15.7417C79.3397 15.7039 78.7736 15.7039 78.2 15.7417C77.3094 21.4173 76.3434 27.6966 75.7698 31.5533H72.3433C73.2716 25.7041 75.6264 10.6019 76.4491 4.75277H79.9509V4.76031Z" stroke="black" stroke-width="0.4213" stroke-miterlimit="10"/>
<path d="M90.09 31.5608H83.1313C84.1653 25.2437 85.954 13.5378 87.237 4.79803H94.0145L93.5165 8.04338C91.841 7.97545 90.9504 7.97546 90.1956 7.93772C89.9843 9.4019 89.7353 10.934 89.4787 12.5039C90.6938 12.5039 92.0825 12.4661 92.5504 12.4359L92.09 15.7945C91.5919 15.7567 90.1956 15.7266 88.9503 15.7266C88.271 19.9002 87.5918 24.3305 86.988 28.3985C88.022 28.3985 89.2371 28.3608 90.5957 28.2551L90.09 31.5608Z" fill="black"/>
<path d="M90.09 31.5608H83.1313C84.1653 25.2437 85.954 13.5378 87.237 4.79803H94.0145L93.5165 8.04338C91.841 7.97545 90.9504 7.97546 90.1956 7.93772C89.9843 9.4019 89.7353 10.934 89.4787 12.5039C90.6938 12.5039 92.0825 12.4661 92.5504 12.4359L92.09 15.7945C91.5919 15.7567 90.1956 15.7266 88.9503 15.7266C88.271 19.9002 87.5918 24.3305 86.988 28.3985C88.022 28.3985 89.2371 28.3608 90.5957 28.2551L90.09 31.5608Z" stroke="black" stroke-width="0.4213" stroke-miterlimit="10"/>
<path d="M11.4384 15.4549C16.1027 12.6926 19.3254 9.10759 19.3178 2.11122C19.3178 1.44705 18.9178 0.352694 18.3141 0.0809899C17.8008 -0.152977 17.1744 0.148915 16.8574 0.616849C16.5404 1.08478 16.4725 1.66593 16.4423 2.23198C16.2687 5.09996 16.8121 8.03587 18.1933 10.5567C19.5744 13.0699 22.0047 15.3115 24.7142 16.2625C26.684 16.9493 28.8124 17.0398 30.8954 17.1304C31.7105 17.1606 32.7068 17.1002 33.0917 16.3757C33.4087 15.7794 33.0841 15.0021 32.5332 14.602C31.9822 14.2096 31.2803 14.1115 30.6011 14.0813C26.6085 13.8926 22.5632 15.5756 19.8764 18.5342C17.1895 21.4928 15.914 25.6815 16.4876 29.6363C16.6234 30.5722 17.1593 31.7269 18.1027 31.6137C18.9329 31.5156 19.265 30.5043 19.3405 29.6741C19.665 26.0664 18.465 22.3682 16.1933 19.5455C13.9215 16.7228 10.6158 14.7756 7.07608 14.0058C5.7251 13.7115 4.30621 13.5832 2.97788 13.953C2.5175 14.0813 2.02689 14.3077 1.86085 14.7605C1.55141 15.5907 2.54768 16.3002 3.40053 16.5417C6.91758 17.553 10.1177 16.6474 13.4083 14.1869" fill="black"/>
<path d="M137.326 15.4549C141.99 12.6926 145.213 9.10758 145.205 2.11121C145.205 1.44704 144.805 0.352682 144.201 0.0809785C143.688 -0.152989 143.062 0.148904 142.745 0.616838C142.428 1.08477 142.36 1.66592 142.33 2.23197C142.156 5.09995 142.699 8.03586 144.081 10.5567C145.462 13.0699 147.892 15.3115 150.601 16.2624C152.571 16.9492 154.7 17.0398 156.783 17.1304C157.598 17.1606 158.594 17.1002 158.979 16.3757C159.296 15.7794 158.971 15.002 158.42 14.602C157.869 14.2096 157.168 14.1115 156.488 14.0813C152.496 13.8926 148.45 15.5756 145.764 18.5342C143.077 21.4927 141.801 25.6815 142.375 29.6363C142.511 30.5722 143.047 31.7269 143.99 31.6137C144.82 31.5156 145.152 30.5042 145.228 29.674C145.552 26.0664 144.352 22.3682 142.08 19.5455C139.809 16.7228 136.503 14.7756 132.963 14.0058C131.612 13.7114 130.193 13.5831 128.865 13.953C128.405 14.0813 127.914 14.3077 127.748 14.7605C127.439 15.5907 128.435 16.3002 129.288 16.5417C132.805 17.553 136.005 16.6474 139.295 14.1869" fill="black"/>
</svg>
