<svg width="50" height="50" viewBox="0 0 50 50" fill="none" xmlns="http://www.w3.org/2000/svg">
<path d="M1.15727 24.9115L1.15726 24.9115C0.318695 17.979 2.89896 12.3081 7.37979 8.21392C11.8842 4.09818 18.3291 1.56688 25.1516 1.06039C38.4557 0.0727355 48.4874 11.4346 48.9912 25.0685C49.1621 29.6937 46.833 35.6963 42.5636 40.5626C38.3132 45.4073 32.2501 49 25.0775 49C18.7956 49 13.3479 47.1158 9.21955 43.2252C5.08549 39.3294 2.17514 33.3277 1.15727 24.9115Z" stroke="black" stroke-width="2"/>
<path d="M16.1902 26.2785L16.2601 26.1685L20.4802 19.5668C20.5418 19.4702 20.6868 19.4802 20.7335 19.5852C21.4385 21.1652 22.0468 23.1302 21.7618 24.3535C21.6402 24.8568 21.3068 25.5385 20.9318 26.1685C20.8835 26.2602 20.8302 26.3502 20.7735 26.4368C20.7468 26.4768 20.7018 26.5002 20.6535 26.5002H16.3135C16.1968 26.5002 16.1285 26.3735 16.1902 26.2785Z" fill="black"/>
<path d="M35 27.505V28.55C35 28.61 34.9633 28.6633 34.91 28.6867C34.5833 28.8267 33.465 29.34 33 29.9867C31.8133 31.6383 30.9067 34 28.88 34H20.425C17.4283 34 15 31.5633 15 28.5567V28.46C15 28.38 15.065 28.315 15.145 28.315H19.8583C19.9517 28.315 20.02 28.4017 20.0117 28.4933C19.9783 28.8 20.035 29.1133 20.18 29.3983C20.46 29.9667 21.04 30.3217 21.6667 30.3217H24V28.5H21.6933C21.575 28.5 21.505 28.3633 21.5733 28.2667C21.5983 28.2283 21.6267 28.1883 21.6567 28.1433C21.875 27.8333 22.1867 27.3517 22.4966 26.8033C22.7083 26.4333 22.9133 26.0383 23.0783 25.6417C23.1117 25.57 23.1383 25.4967 23.165 25.425C23.21 25.2983 23.2567 25.18 23.29 25.0617C23.3233 24.9617 23.35 24.8567 23.3767 24.7583C23.455 24.4217 23.4883 24.065 23.4883 23.695C23.4883 23.55 23.4817 23.3983 23.4683 23.2533C23.4617 23.095 23.4417 22.9367 23.4217 22.7783C23.4083 22.6383 23.3833 22.5 23.3567 22.355C23.3233 22.1433 23.2767 21.9333 23.2233 21.7217L23.205 21.6417C23.165 21.4967 23.1317 21.3583 23.085 21.2133C22.9533 20.7583 22.8017 20.315 22.6417 19.9C22.5833 19.735 22.5167 19.5767 22.45 19.4183C22.3517 19.18 22.2517 18.9633 22.16 18.7583C22.1133 18.665 22.0733 18.58 22.0333 18.4933C21.9883 18.395 21.9417 18.2967 21.895 18.2033C21.8617 18.1317 21.8233 18.065 21.7966 17.9983L21.5117 17.4717C21.4717 17.4 21.5383 17.315 21.6167 17.3367L23.4 17.82H23.405C23.4083 17.82 23.41 17.8217 23.4117 17.8217L23.6466 17.8867L23.905 17.96L24 17.9867V16.9267C24 16.415 24.41 16 24.9167 16C25.17 16 25.4 16.1033 25.565 16.2717C25.73 16.44 25.8333 16.67 25.8333 16.9267V18.5L26.0233 18.5533C26.0383 18.5583 26.0533 18.565 26.0667 18.575C26.1133 18.61 26.18 18.6617 26.265 18.725C26.3317 18.7783 26.4033 18.8433 26.49 18.91C26.6617 19.0483 26.8667 19.2267 27.0917 19.4317C27.1517 19.4833 27.21 19.5367 27.2633 19.59C27.5533 19.86 27.8783 20.1767 28.1883 20.5267C28.275 20.625 28.36 20.725 28.4466 20.83C28.5333 20.9367 28.625 21.0417 28.705 21.1467C28.81 21.2867 28.9233 21.4317 29.0217 21.5833C29.0683 21.655 29.1217 21.7283 29.1667 21.8C29.2933 21.9917 29.405 22.19 29.5117 22.3883C29.5567 22.48 29.6033 22.58 29.6433 22.6783C29.7616 22.9433 29.855 23.2133 29.915 23.4833C29.9333 23.5417 29.9466 23.605 29.9533 23.6617V23.675C29.9733 23.755 29.98 23.84 29.9867 23.9267C30.0133 24.2033 30 24.48 29.94 24.7583C29.915 24.8767 29.8817 24.9883 29.8417 25.1067C29.8017 25.22 29.7616 25.3383 29.71 25.45C29.61 25.6817 29.4917 25.9133 29.3517 26.13C29.3067 26.21 29.2533 26.295 29.2 26.375C29.1417 26.46 29.0817 26.54 29.0283 26.6184C28.955 26.7184 28.8767 26.8233 28.7966 26.9167C28.725 27.015 28.6517 27.1133 28.5717 27.2C28.46 27.3317 28.3533 27.4567 28.2417 27.5767C28.175 27.655 28.1033 27.735 28.03 27.8067C27.9583 27.8867 27.885 27.9583 27.8183 28.025C27.7067 28.1367 27.6133 28.2233 27.535 28.295L27.3517 28.4633C27.325 28.4867 27.29 28.5 27.2533 28.5H25.8333V30.3217H27.62C28.02 30.3217 28.4 30.18 28.7067 29.92C28.8116 29.8283 29.27 29.4317 29.8117 28.8333C29.83 28.8133 29.8533 28.7983 29.88 28.7917L34.815 27.365C34.9067 27.3383 35 27.4083 35 27.505Z" fill="black"/>
</svg>
