<svg width="50" height="50" viewBox="0 0 50 50" fill="none" xmlns="http://www.w3.org/2000/svg">
<path d="M1.15727 25.0885L1.15726 25.0885C0.318695 32.021 2.89896 37.6919 7.37979 41.7861C11.8842 45.9018 18.3291 48.4331 25.1516 48.9396C38.4557 49.9273 48.4874 38.5654 48.9912 24.9315C49.1621 20.3063 46.833 14.3037 42.5636 9.43742C38.3132 4.59267 32.2501 1 25.0775 1C18.7956 1 13.3479 2.88423 9.21955 6.77476C5.08549 10.6706 2.17514 16.6723 1.15727 25.0885Z" stroke="black" stroke-width="2"/>
<path d="M34.1917 22.0063L31.8351 24.3629C31.3646 29.8224 26.7605 34.0644 21.2497 34.0644C20.115 34.0644 19.1799 33.8845 18.4702 33.5296C17.8975 33.2433 17.6629 32.9359 17.6047 32.8486C17.5525 32.7702 17.5186 32.6811 17.5057 32.5878C17.4927 32.4946 17.501 32.3996 17.5299 32.31C17.5588 32.2204 17.6076 32.1385 17.6726 32.0704C17.7376 32.0023 17.8171 31.9497 17.9053 31.9167C17.9254 31.9091 19.7684 31.2012 20.9596 29.8535C20.2187 29.3259 19.5666 28.6836 19.0278 27.9507C17.9569 26.4973 16.8242 23.9733 17.5098 20.2026C17.5302 20.0903 17.5809 19.9859 17.6565 19.9004C17.732 19.8149 17.8295 19.7518 17.9384 19.7178C18.0473 19.6838 18.1634 19.6802 18.2741 19.7075C18.3849 19.7347 18.4861 19.7918 18.5667 19.8724C18.5942 19.8999 21.195 22.4639 24.3743 23.2921L24.3747 22.8141C24.3815 21.8134 24.7853 20.8563 25.4974 20.1533C26.2095 19.4502 27.1716 19.0586 28.1723 19.0646C28.8223 19.0736 29.459 19.2511 30.02 19.5797C30.581 19.9083 31.0471 20.3767 31.373 20.9393L33.7497 20.9394C33.8733 20.9394 33.9942 20.976 34.097 21.0447C34.1997 21.1134 34.2799 21.211 34.3272 21.3252C34.3745 21.4394 34.3869 21.5651 34.3627 21.6863C34.3386 21.8075 34.2791 21.9189 34.1917 22.0063Z" fill="black"/>
</svg>
