<svg width="105" height="105" viewBox="0 0 105 105" fill="none" xmlns="http://www.w3.org/2000/svg">
<circle cx="53" cy="53" r="45" stroke="#111F2C" stroke-width="10"/>
<path d="M22.6701 56.5864C20.0673 55.6641 17.2095 57.0264 16.2872 59.6292C15.3648 62.232 16.7271 65.0897 19.3299 66.0121L22.6701 56.5864ZM84 46C86.7614 46 89 43.7614 89 41C89 38.2386 86.7614 36 84 36V46ZM19.3299 66.0121L19.8743 66.205L23.2144 56.7793L22.6701 56.5864L19.3299 66.0121ZM56.9491 57.3116L60.2937 53.7883L53.041 46.9036L49.6965 50.4269L56.9491 57.3116ZM78.4253 46H84V36H78.4253V46ZM60.2937 53.7883C65.0139 48.8157 71.5692 46 78.4253 46V36C68.8267 36 59.6494 39.942 53.041 46.9036L60.2937 53.7883ZM19.8743 66.205C32.9044 70.8225 47.4317 67.3377 56.9491 57.3116L49.6965 50.4269C42.8983 57.5884 32.5217 60.0775 23.2144 56.7793L19.8743 66.205Z" fill="#111F2C"/>
</svg>
